<svg xmlns="http://www.w3.org/2000/svg" viewBox="0 0 96 96" role="img" aria-labelledby="title desc">
  <title id="title">ERP Search mark</title>
  <desc id="desc">Magnifying glass with ERP analytics mark</desc>
  <defs>
    <linearGradient id="navyMark" x1="0%" y1="0%" x2="100%" y2="100%">
      <stop offset="0%" stop-color="#173b72"/>
      <stop offset="100%" stop-color="#102d57"/>
    </linearGradient>
    <linearGradient id="tealMark" x1="0%" y1="0%" x2="100%" y2="100%">
      <stop offset="0%" stop-color="#39c4bb"/>
      <stop offset="100%" stop-color="#1f9f97"/>
    </linearGradient>
  </defs>
  <circle cx="38" cy="38" r="26" fill="none" stroke="url(#navyMark)" stroke-width="8"/>
  <path d="M56 56 76 76" stroke="url(#navyMark)" stroke-width="10" stroke-linecap="round"/>
  <path d="M76 76 83 69" stroke="url(#navyMark)" stroke-width="10" stroke-linecap="round"/>
  <path d="M26 49V33c0-2.5 2-4.5 4.5-4.5h7c2.5 0 4.5 2 4.5 4.5V49z" fill="url(#tealMark)"/>
  <path d="M45 49V25c0-2.5 2-4.5 4.5-4.5h7c2.5 0 4.5 2 4.5 4.5V49z" fill="url(#tealMark)"/>
  <path d="M17 46 29 34 45 34 56 23 67 23" fill="none" stroke="url(#tealMark)" stroke-width="5" stroke-linecap="round" stroke-linejoin="round"/>
</svg>
