<svg xmlns="http://www.w3.org/2000/svg" width="112" height="28" viewBox="0 0 112 28" role="img" aria-label="Business Central NAV">
  <rect width="112" height="28" rx="14" fill="#EAF4FB"/>
  <rect x="4" y="4" width="22" height="20" rx="10" fill="#0F6CBD"/>
  <path d="M10 8h4.6c3 0 4.8 1.5 4.8 3.9 0 1.5-.8 2.6-2.1 3.1 1.7.5 2.7 1.8 2.7 3.6 0 2.6-1.9 4.4-5.1 4.4H10V8zm4.4 6c1.2 0 1.9-.5 1.9-1.5s-.7-1.5-1.9-1.5H13v3h1.4zm.4 5.7c1.3 0 2.1-.6 2.1-1.7s-.8-1.7-2.1-1.7H13v3.4h1.8z" fill="#fff"/>
  <text x="34" y="18" fill="#0F1720" font-size="11" font-weight="700" font-family="Arial, Helvetica, sans-serif">Business Central / NAV</text>
</svg>
