<svg xmlns="http://www.w3.org/2000/svg" width="104" height="28" viewBox="0 0 104 28" role="img" aria-label="Sage Intacct">
  <rect width="104" height="28" rx="14" fill="#EEF8F0"/>
  <rect x="4" y="4" width="22" height="20" rx="10" fill="#15803D"/>
  <path d="M10.4 18.2c.8.6 1.8 1 3.1 1 1 0 1.7-.4 1.7-1.1 0-.8-.8-1-2.2-1.4-2-.5-3.7-1.2-3.7-3.6 0-2 1.6-3.4 4.1-3.4 1.4 0 2.7.4 3.7 1.1l-1.1 2.2c-.8-.5-1.6-.8-2.6-.8-.9 0-1.4.4-1.4 1 0 .7.8.9 2.2 1.3 2 .5 3.8 1.2 3.8 3.7 0 2.2-1.8 3.5-4.5 3.5-1.8 0-3.4-.5-4.5-1.3l1.4-2.2z" fill="#fff"/>
  <text x="33" y="18" fill="#203427" font-size="11" font-weight="700" font-family="Arial, Helvetica, sans-serif">Sage Intacct</text>
</svg>
